<svg xmlns="http://www.w3.org/2000/svg" version="1.1" xmlns:xlink="http://www.w3.org/1999/xlink" xmlns:svgjs="http://svgjs.dev/svgjs" width="2000" height="1500" viewBox="0 0 2000 1500"><rect width="2000" height="1500" fill="#ffffff"></rect><g transform="matrix(0.75,0,0,0.75,249.090909090909,670.5107980389637)"><svg viewBox="0 0 396 42" data-background-color="#ffffff" preserveAspectRatio="xMidYMid meet" height="212" width="2000" xmlns="http://www.w3.org/2000/svg" xmlns:xlink="http://www.w3.org/1999/xlink"><defs></defs><g id="tight-bounds" transform="matrix(1,0,0,1,0.2400000000000091,-0.002852312179101091)"><svg viewBox="0 0 395.52 42.00570462435822" height="42.00570462435822" width="395.52"><g><svg viewBox="0 0 451.6906115647618 47.97123384654407" height="42.00570462435822" width="395.52"><g transform="matrix(1,0,0,1,0,6.629888324667089)"><svg viewBox="0 0 395.52 34.71145719720989" height="34.71145719720989" width="395.52"><g><svg viewBox="0 0 395.52 34.71145719720989" height="34.71145719720989" width="395.52"><g><svg viewBox="0 0 395.52 34.71145719720989" height="34.71145719720989" width="395.52"><g transform="matrix(1,0,0,1,0,0)"><svg width="395.52" viewBox="1.1 -34.3 396.02 34.599999999999994" height="34.71145719720989" data-palette-color="#30017e"><g class="undefined-text-0" data-fill-palette-color="primary" id="text-0"><path d="M13.35-34.3L13.35-34.3Q15.15-34.3 16.82-34 18.5-33.7 19.95-33.25 21.4-32.8 22.58-32.23 23.75-31.65 24.6-31.05L24.6-31.05 21.7-25.55Q21.1-25.85 20.25-26.33 19.4-26.8 18.43-27.25 17.45-27.7 16.43-28 15.4-28.3 14.45-28.3L14.45-28.3Q12.7-28.3 11.85-27.58 11-26.85 11-25.75L11-25.75Q11.05-24.9 11.4-24.25 11.75-23.6 12.45-22.98 13.15-22.35 14.25-21.75 15.35-21.15 16.95-20.5L16.95-20.5Q18.95-19.65 20.45-18.75 21.95-17.85 22.93-16.7 23.9-15.55 24.4-14.1 24.9-12.65 24.9-10.75L24.9-10.75Q24.9-8.45 24.08-6.43 23.25-4.4 21.7-2.9 20.15-1.4 17.95-0.55 15.75 0.3 13 0.3L13 0.3Q11.05 0.3 9.28-0.05 7.5-0.4 6-0.95 4.5-1.5 3.25-2.13 2-2.75 1.1-3.3L1.1-3.3 3.8-9.2Q4.15-8.95 5.1-8.38 6.05-7.8 7.25-7.23 8.45-6.65 9.7-6.2 10.95-5.75 11.95-5.75L11.95-5.75Q14.05-5.75 15.03-6.73 16-7.7 16-9.5L16-9.5Q16-11.3 14.78-12.23 13.55-13.15 11.3-14.05L11.3-14.05Q9.1-14.95 7.4-15.95 5.7-16.95 4.53-18.2 3.35-19.45 2.73-21 2.1-22.55 2.1-24.6L2.1-24.6Q2.1-26.85 3.03-28.63 3.95-30.4 5.5-31.68 7.05-32.95 9.08-33.63 11.1-34.3 13.35-34.3ZM29.4 0L29.4-33.85 37.65-33.85 37.65-6.05 49.55-6.05 49.55 0 29.4 0Z" fill="#30017e" data-fill-palette-color="primary"></path><path d="M88.39-34.3L88.39-34.3Q90.2-34.3 91.87-34 93.55-33.7 95-33.25 96.45-32.8 97.62-32.23 98.8-31.65 99.64-31.05L99.64-31.05 96.75-25.55Q96.14-25.85 95.3-26.33 94.45-26.8 93.47-27.25 92.5-27.7 91.47-28 90.45-28.3 89.5-28.3L89.5-28.3Q87.75-28.3 86.89-27.58 86.05-26.85 86.05-25.75L86.05-25.75Q86.1-24.9 86.45-24.25 86.8-23.6 87.5-22.98 88.2-22.35 89.3-21.75 90.39-21.15 92-20.5L92-20.5Q94-19.65 95.5-18.75 97-17.85 97.97-16.7 98.95-15.55 99.45-14.1 99.95-12.65 99.95-10.75L99.95-10.75Q99.95-8.45 99.12-6.43 98.3-4.4 96.75-2.9 95.2-1.4 93-0.55 90.8 0.3 88.05 0.3L88.05 0.3Q86.1 0.3 84.32-0.05 82.55-0.4 81.05-0.95 79.55-1.5 78.3-2.13 77.05-2.75 76.15-3.3L76.15-3.3 78.85-9.2Q79.2-8.95 80.15-8.38 81.1-7.8 82.3-7.23 83.5-6.65 84.75-6.2 86-5.75 87-5.75L87-5.75Q89.1-5.75 90.07-6.73 91.05-7.7 91.05-9.5L91.05-9.5Q91.05-11.3 89.82-12.23 88.6-13.15 86.35-14.05L86.35-14.05Q84.14-14.95 82.45-15.95 80.75-16.95 79.57-18.2 78.4-19.45 77.77-21 77.15-22.55 77.15-24.6L77.15-24.6Q77.15-26.85 78.07-28.63 79-30.4 80.55-31.68 82.1-32.95 84.12-33.63 86.14-34.3 88.39-34.3ZM130.14-10.05L125.89 0 119.64 0 115.49-9.6Q115.34-10 114.92-11.08 114.49-12.15 113.97-13.53 113.44-14.9 112.89-16.35 112.34-17.8 111.89-19L111.89-19Q111.89-17.7 111.89-16 111.89-14.3 111.89-12.55 111.89-10.8 111.87-9.25 111.84-7.7 111.79-6.8L111.79-6.8 111.54 0 103.94 0 105.94-33.85 113.04-33.85 120.84-14.35Q121.19-13.45 121.77-11.83 122.34-10.2 122.89-8.3L122.89-8.3Q123.44-10.15 124.02-11.78 124.59-13.4 124.99-14.35L124.99-14.35 132.79-33.85 139.74-33.85 141.74 0 133.99 0 133.69-6.8Q133.64-7.75 133.62-9.3 133.59-10.85 133.59-12.58 133.59-14.3 133.62-16.03 133.64-17.75 133.64-19L133.64-19Q133.24-17.95 132.77-16.63 132.29-15.3 131.79-14.05 131.29-12.8 130.84-11.73 130.39-10.65 130.14-10.05L130.14-10.05ZM144.29 0L157.14-33.85 164.49-33.85 176.89 0 168.54 0 166.04-8.15 155.09-8.15 152.49 0 144.29 0ZM156.99-14.25L164.19-14.25Q163.69-15.7 163.17-17.28 162.64-18.85 162.17-20.35 161.69-21.85 161.29-23.18 160.89-24.5 160.59-25.4L160.59-25.4Q160.29-24.45 159.89-23.13 159.49-21.8 159.02-20.3 158.54-18.8 158.02-17.25 157.49-15.7 156.99-14.25L156.99-14.25ZM179.89 0L179.89-33.85Q180.34-33.85 181.69-33.88 183.04-33.9 184.69-33.9 186.34-33.9 187.89-33.93 189.44-33.95 190.29-33.95L190.29-33.95Q196.69-33.95 199.89-31.5 203.09-29.05 203.09-24.25L203.09-24.25Q203.09-21.05 201.54-18.98 199.99-16.9 197.34-15.75L197.34-15.75Q198.84-14.9 199.99-13.5 201.14-12.1 202.19-10.13 203.24-8.15 204.31-5.6 205.39-3.05 206.69 0L206.69 0 197.84 0Q196.24-3.5 195.14-6.18 194.04-8.85 193.09-10.68 192.14-12.5 191.21-13.43 190.29-14.35 188.99-14.35L188.99-14.35 188.14-14.35 188.14 0 179.89 0ZM188.14-28.55L188.14-19.5 190.24-19.5Q191.99-19.5 193.21-20.58 194.44-21.65 194.44-23.95L194.44-23.95Q194.44-24.9 194.21-25.73 193.99-26.55 193.49-27.18 192.99-27.8 192.11-28.18 191.24-28.55 189.99-28.55L189.99-28.55 188.14-28.55ZM206.83-33.85L231.99-33.85 230.93-27.8 223.14-27.8 223.14 0 214.89 0 214.89-27.8 206.83-27.8 206.83-33.85ZM235.18 0L235.18-33.85 256.73-33.85 256.73-27.8 243.43-27.8 243.43-20.55 254.48-20.55 253.53-14.6 243.43-14.6 243.43-6.05 257.43-6.05 257.43 0 235.18 0ZM261.38 0L261.38-33.85Q261.83-33.85 263.18-33.88 264.53-33.9 266.18-33.9 267.83-33.9 269.38-33.93 270.93-33.95 271.78-33.95L271.78-33.95Q278.18-33.95 281.38-31.5 284.58-29.05 284.58-24.25L284.58-24.25Q284.58-21.05 283.03-18.98 281.48-16.9 278.83-15.75L278.83-15.75Q280.33-14.9 281.48-13.5 282.63-12.1 283.68-10.13 284.73-8.15 285.81-5.6 286.88-3.05 288.18 0L288.18 0 279.33 0Q277.73-3.5 276.63-6.18 275.53-8.85 274.58-10.68 273.63-12.5 272.71-13.43 271.78-14.35 270.48-14.35L270.48-14.35 269.63-14.35 269.63 0 261.38 0ZM269.63-28.55L269.63-19.5 271.73-19.5Q273.48-19.5 274.71-20.58 275.93-21.65 275.93-23.95L275.93-23.95Q275.93-24.9 275.71-25.73 275.48-26.55 274.98-27.18 274.48-27.8 273.61-28.18 272.73-28.55 271.48-28.55L271.48-28.55 269.63-28.55Z" fill="#96a2fb" data-fill-palette-color="secondary"></path><path d="M291.28 0L291.28-33.85 299.53-33.85 299.53-6.05 311.43-6.05 311.43 0 291.28 0ZM311.03 0L323.88-33.85 331.23-33.85 343.63 0 335.28 0 332.78-8.15 321.83-8.15 319.23 0 311.03 0ZM323.73-14.25L330.93-14.25Q330.43-15.7 329.9-17.28 329.38-18.85 328.9-20.35 328.43-21.85 328.03-23.18 327.63-24.5 327.33-25.4L327.33-25.4Q327.03-24.45 326.63-23.13 326.23-21.8 325.75-20.3 325.28-18.8 324.75-17.25 324.23-15.7 323.73-14.25L323.73-14.25ZM346.63 0L346.63-33.85Q347.08-33.85 348.45-33.88 349.83-33.9 351.48-33.9 353.13-33.9 354.68-33.93 356.23-33.95 357.02-33.95L357.02-33.95Q363.38-33.95 366.6-31.58 369.83-29.2 369.83-25.15L369.83-25.15Q369.83-22.6 368.2-20.65 366.58-18.7 363.43-17.65L363.43-17.65Q367.18-16.55 369-14.45 370.83-12.35 370.83-9.45L370.83-9.45Q370.83 0.05 356.48 0.05L356.48 0.05Q355.77 0.05 354.35 0.05 352.93 0.05 351.38 0.03 349.83 0 348.5 0 347.18 0 346.63 0L346.63 0ZM354.88-14.4L354.88-5.4 357.33-5.4Q358.33-5.4 359.2-5.6 360.08-5.8 360.73-6.28 361.38-6.75 361.75-7.58 362.13-8.4 362.13-9.65L362.13-9.65Q362.13-10.6 361.88-11.48 361.63-12.35 361.02-13.03 360.43-13.7 359.45-14.1 358.48-14.5 357.08-14.5L357.08-14.5Q356.38-14.5 355.8-14.48 355.23-14.45 354.88-14.4L354.88-14.4ZM354.88-28.45L354.88-19.65 357.18-19.65Q358.73-19.65 359.95-20.6 361.18-21.55 361.18-24.05L361.18-24.05Q361.18-26.15 360.2-27.33 359.23-28.5 356.98-28.5L356.98-28.5Q356.33-28.5 355.75-28.5 355.18-28.5 354.88-28.45L354.88-28.45ZM385.57-34.3L385.57-34.3Q387.37-34.3 389.05-34 390.72-33.7 392.17-33.25 393.62-32.8 394.8-32.23 395.97-31.65 396.82-31.05L396.82-31.05 393.92-25.55Q393.32-25.85 392.47-26.33 391.62-26.8 390.65-27.25 389.67-27.7 388.65-28 387.62-28.3 386.67-28.3L386.67-28.3Q384.92-28.3 384.07-27.58 383.22-26.85 383.22-25.75L383.22-25.75Q383.27-24.9 383.62-24.25 383.97-23.6 384.67-22.98 385.37-22.35 386.47-21.75 387.57-21.15 389.17-20.5L389.17-20.5Q391.17-19.65 392.67-18.75 394.17-17.85 395.15-16.7 396.12-15.55 396.62-14.1 397.12-12.65 397.12-10.75L397.12-10.75Q397.12-8.45 396.3-6.43 395.47-4.4 393.92-2.9 392.37-1.4 390.17-0.55 387.97 0.3 385.22 0.3L385.22 0.3Q383.27 0.3 381.5-0.05 379.72-0.4 378.22-0.95 376.72-1.5 375.47-2.13 374.22-2.75 373.32-3.3L373.32-3.3 376.02-9.2Q376.37-8.95 377.32-8.38 378.27-7.8 379.47-7.23 380.67-6.65 381.92-6.2 383.17-5.75 384.17-5.75L384.17-5.75Q386.27-5.75 387.25-6.73 388.22-7.7 388.22-9.5L388.22-9.5Q388.22-11.3 387-12.23 385.77-13.15 383.52-14.05L383.52-14.05Q381.32-14.95 379.62-15.95 377.92-16.95 376.75-18.2 375.57-19.45 374.95-21 374.32-22.55 374.32-24.6L374.32-24.6Q374.32-26.85 375.25-28.63 376.17-30.4 377.72-31.68 379.27-32.95 381.3-33.63 383.32-34.3 385.57-34.3Z" fill="#a56ffb" data-fill-palette-color="accent"></path></g></svg></g></svg></g></svg></g></svg></g><g transform="matrix(1,0,0,1,403.7145419692885,0)"><svg viewBox="0 0 47.976069595473305 47.97123384654407" height="47.97123384654407" width="47.976069595473305"><g><svg xmlns="http://www.w3.org/2000/svg" xmlns:xlink="http://www.w3.org/1999/xlink" version="1.1" x="0" y="0" viewBox="11.169 10.846000000000004 79.36900000000001 79.36099999999999" enable-background="new 0 0 100 100" xml:space="preserve" height="47.97123384654407" width="47.976069595473305" class="icon-icon-0" data-fill-palette-color="accent" id="icon-0"><g fill="#a56ffb" data-fill-palette-color="accent"><path fill="#a56ffb" d="M53.498 20.584c0 1.561-1.19 2.83-2.649 2.83-1.45 0-2.64-1.269-2.64-2.83v-6.913c0-1.556 1.189-2.825 2.64-2.825 1.459 0 2.649 1.269 2.649 2.825V20.584z" data-fill-palette-color="accent"></path></g><g fill="#a56ffb" data-fill-palette-color="accent"><path fill="#a56ffb" d="M48.209 80.468c0-1.557 1.189-2.825 2.64-2.825 1.459 0 2.649 1.269 2.649 2.825v6.916c0 1.553-1.19 2.823-2.649 2.823-1.45 0-2.64-1.271-2.64-2.823V80.468z" data-fill-palette-color="accent"></path></g><g fill="#a56ffb" data-fill-palette-color="accent"><path fill="#a56ffb" d="M20.917 47.879c1.55 0 2.821 1.195 2.821 2.645 0 1.449-1.271 2.65-2.821 2.65h-6.919c-1.549 0-2.829-1.201-2.829-2.65 0-1.45 1.28-2.645 2.829-2.645H20.917z" data-fill-palette-color="accent"></path></g><g fill="#a56ffb" data-fill-palette-color="accent"><path fill="#a56ffb" d="M80.789 53.174c-1.55 0-2.818-1.196-2.818-2.65 0-1.46 1.269-2.645 2.818-2.645h6.918c1.552 0 2.831 1.184 2.831 2.645 0 1.454-1.279 2.65-2.831 2.65H80.789z" data-fill-palette-color="accent"></path></g><g fill="#a56ffb" data-fill-palette-color="accent"><path fill="#a56ffb" d="M73.896 31.226c-1.105 1.103-2.844 1.158-3.875 0.126-1.024-1.025-0.97-2.764 0.135-3.868l4.889-4.888c1.1-1.101 2.839-1.157 3.863-0.131 1.031 1.033 0.977 2.772-0.122 3.872L73.896 31.226z" data-fill-palette-color="accent"></path></g><g fill="#a56ffb" data-fill-palette-color="accent"><path fill="#a56ffb" d="M27.812 69.828c1.101-1.1 2.838-1.156 3.865-0.132 1.031 1.033 0.977 2.773-0.125 3.872l-4.891 4.89c-1.098 1.1-2.838 1.156-3.871 0.124-1.026-1.026-0.968-2.766 0.13-3.865L27.812 69.828z" data-fill-palette-color="accent"></path></g><g fill="#a56ffb" data-fill-palette-color="accent"><path fill="#a56ffb" d="M31.557 27.486c1.097 1.097 1.15 2.84 0.126 3.864-1.025 1.025-2.773 0.976-3.869-0.121l-4.892-4.892c-1.096-1.097-1.151-2.849-0.127-3.875 1.024-1.025 2.774-0.965 3.871 0.131L31.557 27.486z" data-fill-palette-color="accent"></path></g><g fill="#a56ffb" data-fill-palette-color="accent"><path fill="#a56ffb" d="M70.15 73.566c-1.097-1.097-1.148-2.839-0.12-3.867 1.033-1.033 2.768-0.973 3.863 0.123l4.893 4.893c1.096 1.096 1.164 2.839 0.13 3.871-1.027 1.028-2.777 0.969-3.874-0.128L70.15 73.566z" data-fill-palette-color="accent"></path></g></svg><g></g></g></svg></g></svg></g></svg><rect width="395.52" height="42.00570462435822" fill="none" stroke="none" visibility="hidden"></rect></g></svg></g></svg>